<svg version="1.1" id="Layer_1" xmlns="http://www.w3.org/2000/svg" xmlns:xlink="http://www.w3.org/1999/xlink" x="0px" y="0px"
	 width="100%" viewBox="0 0 960 528" enable-background="new 0 0 960 528" xml:space="preserve">
<path fill="#000000" opacity="1.000000" stroke="none" 
	d="
M764.313599,412.218689 
	C762.562256,423.121857 760.571106,433.562134 759.295105,444.089081 
	C757.432312,459.457275 750.346497,470.507202 735.376282,475.999237 
	C731.028137,477.594391 727.037292,480.139343 722.791992,482.046844 
	C719.690369,483.440491 718.252075,482.667358 717.563416,478.823669 
	C715.487305,467.235474 713.889160,455.553040 712.312134,443.923950 
	C710.798828,432.764954 708.550598,421.710663 707.488770,410.461761 
	C706.479614,399.770508 703.975281,389.229401 702.566040,378.564453 
	C701.000671,366.717529 699.165771,354.898682 697.377441,343.098907 
	C695.743652,332.318848 694.408630,321.472137 692.426819,310.724243 
	C690.352844,299.477081 689.126648,288.071320 687.620728,276.722839 
	C687.069763,272.570892 686.326599,268.420563 684.084900,264.899475 
	C680.097229,258.636047 672.560791,256.608673 664.063843,259.847168 
	C646.379456,266.587280 628.828857,273.678131 611.215759,280.605743 
	C595.914673,286.624084 580.597595,292.601898 565.298218,298.624664 
	C554.489075,302.879791 543.717651,307.231781 532.887207,311.431610 
	C529.209473,312.857727 528.564087,315.997864 528.488037,319.140961 
	C528.061218,336.796265 524.936829,354.218628 524.139282,371.845215 
	C523.653381,382.582733 521.473877,392.990845 511.032928,398.751801 
	C502.473541,403.474548 493.506134,407.476074 484.613861,411.567505 
	C481.490173,413.004761 477.485748,410.039886 476.933990,405.843262 
	C475.397552,394.157257 473.740051,382.469360 472.790558,370.728790 
	C471.746368,357.817902 468.903351,345.125641 468.483856,332.150055 
	C468.393921,329.368011 466.313843,328.437317 463.687805,328.038940 
	C457.220123,327.057770 450.722626,327.327698 444.232117,327.172028 
	C442.640106,327.133850 440.635345,327.651672 439.865723,325.649506 
	C439.258240,324.069000 440.490021,322.898529 441.382782,321.661560 
	C444.595459,317.210388 447.600739,312.606201 450.899139,308.221375 
	C453.035278,305.381714 452.906677,303.484161 449.929962,301.205933 
	C433.434204,288.580902 417.069489,275.784668 400.660950,263.045685 
	C396.326294,259.680389 391.920776,256.400970 387.683167,252.917419 
	C383.168152,249.205826 383.524933,245.315811 388.683868,242.823700 
	C396.755066,238.924759 404.789276,234.880539 413.113464,231.592194 
	C422.591248,227.848129 431.648529,230.269440 440.406036,234.808670 
	C456.747192,243.278702 473.190338,251.551895 489.585266,259.918304 
	C491.649414,260.971619 493.905151,261.810974 495.681610,263.236176 
	C500.950775,267.463470 505.471100,265.485474 510.617493,262.616364 
	C546.305603,242.720428 582.129272,223.067612 617.897705,203.315399 
	C621.245422,201.466721 624.404053,199.248779 627.836060,197.585022 
	C636.932251,193.175491 638.915405,181.686508 630.294739,174.767899 
	C606.427795,155.613205 582.870789,136.072571 559.173035,116.706749 
	C526.060791,89.647301 492.921539,62.620884 459.838165,35.526260 
	C457.980164,34.004593 455.394623,33.087151 454.668182,30.315680 
	C456.642792,26.856308 460.595795,26.727304 463.599762,25.264004 
	C472.351379,21.000925 480.941833,16.314688 491.306488,16.512201 
	C501.423126,16.704987 509.784882,21.543133 518.562378,25.335459 
	C534.860962,32.377251 551.058899,39.652672 567.285461,46.860573 
	C583.355042,53.998749 599.397766,61.197517 615.471375,68.326530 
	C636.376465,77.598381 657.318970,86.786110 678.211121,96.086830 
	C698.962097,105.324722 719.660767,114.680161 740.403992,123.935532 
	C746.611938,126.705444 753.021851,129.052307 759.101746,132.071228 
	C764.581909,134.792358 769.510986,133.226898 774.372803,130.993958 
	C799.261780,119.562820 823.903870,107.570816 849.012695,96.649521 
	C866.700378,88.956116 885.536804,85.360214 904.926331,86.880569 
	C912.328552,87.460983 919.579285,89.861298 926.240662,93.328087 
	C930.932190,95.769707 929.436951,100.265770 928.554749,104.032486 
	C925.145203,118.591866 916.063110,129.319489 905.048462,138.900665 
	C892.166870,150.105804 876.845825,156.918930 861.709900,164.150269 
	C842.978455,173.099380 824.260864,182.077530 805.548584,191.066513 
	C801.503174,193.009827 799.886963,196.185318 798.918640,200.735428 
	C795.571045,216.464905 793.648499,232.429947 790.770935,248.230759 
	C788.578918,260.267151 786.878784,272.475525 785.125061,284.631042 
	C782.022949,306.131622 778.369446,327.553619 774.857727,348.993927 
	C771.427368,369.936951 767.885986,390.861755 764.313599,412.218689 
z"/>
<path fill="#000000" opacity="1.000000" stroke="none" 
	d="
M181.315338,449.361938 
	C161.136444,452.989532 141.191727,453.786072 121.216034,453.240082 
	C104.066093,452.771362 87.040665,451.008789 71.354309,443.123535 
	C54.999363,434.902222 46.732494,420.587952 52.309479,400.567352 
	C57.865139,380.623322 70.374817,365.197632 84.028473,350.558044 
	C111.433075,321.174408 143.445770,297.424988 176.760269,275.246063 
	C207.242401,254.952789 238.919067,236.738678 271.378906,219.866165 
	C276.820282,217.037766 276.798431,211.661072 278.387909,207.321167 
	C295.554169,160.451340 325.450073,123.691162 366.051575,95.172165 
	C384.245728,82.392387 403.796936,72.186325 424.502014,64.301971 
	C433.842590,60.745167 443.493408,61.933998 451.589874,68.010956 
	C460.749298,74.885750 469.319489,82.549599 478.075470,89.953606 
	C479.421631,91.091934 481.162720,92.550201 480.577942,94.506073 
	C479.933228,96.662262 478.042267,97.796928 475.714325,98.278717 
	C455.577759,102.446243 436.449615,109.529060 418.480743,119.417664 
	C391.758179,134.123581 368.965088,153.409821 351.242157,178.505295 
	C340.127167,194.244003 331.219147,211.139191 325.827850,229.528931 
	C318.269379,255.311035 315.567047,281.549042 320.920044,308.365204 
	C323.334412,320.460114 326.475220,332.187317 331.066162,343.600708 
	C332.101501,346.174622 333.029053,346.809235 335.794128,346.090973 
	C361.216217,339.487305 385.768066,330.472351 409.678497,319.675232 
	C418.260834,315.799805 418.201172,315.667694 422.058838,316.310028 
	C419.567322,323.345337 417.101837,330.307190 414.749023,336.950928 
	C415.842957,339.476562 419.012390,338.045013 419.972046,341.479370 
	C412.522247,346.063904 403.818878,348.512085 395.615265,351.991852 
	C387.376617,355.486481 378.787262,358.156250 370.598999,361.668854 
	C362.615814,365.093536 353.291565,365.832550 346.658813,372.276428 
	C350.452026,373.195343 353.587891,371.351471 356.641235,370.226440 
	C379.968964,361.631104 403.209869,352.816010 425.944794,342.683685 
	C433.080414,339.503571 441.027039,341.631531 448.542603,342.542389 
	C450.951080,342.834320 451.800140,345.789246 452.118011,348.120056 
	C452.679871,352.239532 453.115204,356.371216 454.571442,360.297699 
	C455.564240,362.974731 453.794647,363.798981 451.873383,364.711151 
	C437.459259,371.554810 422.766205,377.754791 407.989105,383.758911 
	C396.156586,388.566589 384.479248,393.773865 372.269928,397.622528 
	C371.057739,398.004608 370.050873,399.038025 368.477448,400.081787 
	C372.160065,405.190887 376.832642,409.121552 381.428467,413.054260 
	C402.746887,431.296600 426.655823,444.955963 453.365417,453.736084 
	C469.323639,458.981964 485.652100,461.987091 502.291565,464.210693 
	C512.618408,465.590759 522.851685,465.852051 533.110229,465.538025 
	C547.030273,465.111908 560.754944,462.942596 574.462463,460.165863 
	C589.051941,457.210480 602.850952,452.288086 616.507324,446.694977 
	C635.437683,438.941772 652.392151,427.954071 668.136536,415.000580 
	C669.291016,414.050720 670.473083,413.125397 671.705688,412.281281 
	C675.033264,410.002472 677.518494,411.580383 678.096375,414.782104 
	C679.806274,424.255737 682.157532,433.683105 682.272827,443.358521 
	C682.321411,447.429626 684.531921,450.914337 683.380981,455.513062 
	C681.044312,464.849121 675.127808,470.426117 667.343872,474.787231 
	C645.964905,486.765228 623.607178,496.229248 599.851257,502.600739 
	C572.656067,509.894653 545.075928,512.875671 517.023743,512.134888 
	C501.389374,511.722046 485.826416,510.258423 470.515167,507.068542 
	C413.314453,495.151428 363.442139,469.629639 324.195892,425.712494 
	C317.916107,418.685333 312.894165,417.470856 305.053406,420.568176 
	C294.857697,424.595734 284.188141,427.147644 273.614136,429.976807 
	C254.236084,435.161560 234.845551,440.193909 215.039688,443.647278 
	C203.953598,445.580261 192.977020,448.148193 181.315338,449.361938 
M235.860703,276.376129 
	C218.156265,288.476776 200.537521,300.709656 184.808624,315.373657 
	C171.285904,327.980804 157.911621,340.824646 149.999390,357.966522 
	C147.247955,363.927521 144.156128,370.268951 145.624435,377.063141 
	C147.729385,386.803162 153.956436,393.214111 163.264389,397.042786 
	C171.560867,400.455414 180.201355,401.397156 188.959671,402.329071 
	C208.862442,404.446930 228.509506,401.790283 248.063095,398.935211 
	C261.801605,396.929199 275.330017,393.475464 288.941681,390.617859 
	C291.255127,390.132202 293.901093,389.942261 294.599426,386.978851 
	C293.097809,384.932007 291.354248,386.102966 289.856323,386.286957 
	C281.952698,387.257660 274.286713,389.473846 266.446411,390.874451 
	C245.905762,394.544037 225.316330,397.269501 204.459503,396.085175 
	C195.226791,395.560883 185.966904,393.950836 177.346542,390.081390 
	C163.411835,383.826538 158.361435,371.446777 163.828751,357.170135 
	C166.100723,351.237366 169.108215,345.726868 172.805511,340.577454 
	C182.383209,327.238037 194.137939,315.971344 206.670258,305.513031 
	C224.307861,290.794312 243.028748,277.569916 262.697144,265.681061 
	C264.458923,264.616119 267.711609,263.433594 265.775238,260.508698 
	C264.039917,257.887482 261.867615,260.267303 260.187073,261.295197 
	C252.251923,266.148773 244.395798,271.131561 235.860703,276.376129 
M258.400146,354.977661 
	C263.445190,356.510010 268.632538,355.827972 273.759888,355.885101 
	C279.361420,355.947510 280.471191,354.462311 278.311707,349.368042 
	C274.880615,341.273895 273.124268,332.711517 270.781769,324.310211 
	C268.583282,316.425140 269.123108,307.969757 265.840118,299.726166 
	C255.119980,307.712677 246.688797,317.209259 240.766769,328.653046 
	C238.670975,332.703003 236.814133,337.371063 238.763428,342.519592 
	C242.091370,351.309479 249.369995,353.647278 258.400146,354.977661 
z"/>
<path fill="#000000" opacity="1.000000" stroke="none" 
	d="
M118.001007,475.685486 
	C138.053528,476.746704 157.419006,474.109131 176.592545,471.253143 
	C198.638977,467.969208 220.480331,463.201172 241.989059,456.991821 
	C257.603516,452.484070 273.017120,447.397095 288.468719,442.414337 
	C295.411285,440.175537 302.124298,437.223480 308.935547,434.579895 
	C311.189972,433.704865 313.726013,432.756256 314.957367,435.644562 
	C316.190063,438.535919 313.458191,439.239380 311.519318,440.070190 
	C295.497192,446.935486 279.268707,453.285980 262.758728,458.869202 
	C250.053268,463.165863 237.293121,467.334900 224.420746,471.092987 
	C214.080307,474.111847 203.559402,476.531158 193.074966,479.033813 
	C178.258636,482.570496 163.336685,485.614532 148.188461,487.349915 
	C127.845612,489.680450 107.499763,491.399170 86.960060,489.786682 
	C73.806404,488.754028 60.865265,487.049988 48.548897,482.174866 
	C35.641129,477.065582 24.799925,469.484222 19.287531,456.044006 
	C15.320039,446.370575 15.960278,436.480652 18.545275,426.694855 
	C19.676308,422.413208 20.613129,417.945282 23.181799,414.136322 
	C24.091797,412.786957 24.704182,410.821777 26.897589,411.980499 
	C28.479185,412.816010 28.174732,414.196777 27.903999,415.857819 
	C23.828136,440.864471 32.423717,455.263519 56.542843,465.592957 
	C75.927109,473.894623 96.582382,475.925751 118.001007,475.685486 
z"/>
<path fill="#000000" opacity="1.000000" stroke="none" 
	d="
M718.026611,57.736786 
	C730.775024,67.092567 731.744934,79.051559 720.610107,89.874939 
	C709.505737,100.668709 714.478699,100.160294 699.520081,93.662003 
	C686.151917,87.854637 672.805420,81.997238 659.458740,76.140724 
	C658.273193,75.620476 656.923828,75.217911 656.509460,73.604446 
	C659.112915,70.526138 663.067322,69.949097 666.507751,68.546738 
	C676.775635,64.361450 687.151794,60.441452 697.490967,56.431522 
	C704.391907,53.755070 711.134460,54.181072 718.026611,57.736786 
z"/>
<path fill="#000000" opacity="1.000000" stroke="none" 
	d="
M794.250122,301.457520 
	C796.144470,290.771515 798.122253,280.514679 799.623840,270.188599 
	C802.283203,251.900375 799.912842,254.177155 818.287354,252.660355 
	C826.694397,251.966354 834.193420,253.511230 839.586731,260.716827 
	C846.506592,269.961823 844.917786,281.837128 834.950256,287.871460 
	C822.750549,295.257141 809.972534,301.688141 797.434204,308.512909 
	C796.570618,308.982971 795.646729,309.458771 794.189758,308.781921 
	C793.209717,306.681305 793.788757,304.259979 794.250122,301.457520 
z"/>
<path fill="#000000" opacity="1.000000" stroke="none" 
	d="
M790.885254,336.420776 
	C797.202332,335.722260 803.165833,334.630005 809.080811,334.849030 
	C817.626099,335.165375 824.544617,339.264618 828.000305,347.285706 
	C830.666443,353.474213 830.383911,359.966827 826.170959,365.734283 
	C823.971802,368.744965 820.930298,370.810181 817.716064,372.578064 
	C806.965149,378.491333 796.201538,384.382416 785.388611,390.180969 
	C784.022339,390.913666 782.621399,392.210541 780.542419,391.282806 
	C778.956421,388.489380 780.412048,385.436951 780.965332,382.785614 
	C783.843018,368.996674 785.390137,355.001465 787.844116,341.152832 
	C788.185974,339.223877 788.840820,337.669922 790.885254,336.420776 
z"/>
<path fill="#000000" opacity="1.000000" stroke="none" 
	d="
M637.460938,23.481110 
	C647.303772,33.664356 647.264526,42.939293 637.636902,52.782204 
	C628.772888,61.844383 628.702271,62.010963 617.093323,57.087772 
	C603.815613,51.456879 590.677429,45.496769 577.486755,39.661263 
	C576.130554,39.061272 574.691406,38.492172 574.224731,36.758179 
	C574.432556,34.880718 576.185974,34.657425 577.447388,34.148083 
	C589.739929,29.184404 602.093140,24.370863 614.380920,19.395454 
	C622.828247,15.975059 630.268311,17.866570 637.460938,23.481110 
z"/>
</svg>