<svg version="1.1" id="Layer_1" xmlns="http://www.w3.org/2000/svg" xmlns:xlink="http://www.w3.org/1999/xlink" x="0px" y="0px"
	 width="100%" viewBox="0 0 959 496" enable-background="new 0 0 959 496" xml:space="preserve">
<path fill="#FEFEFE" opacity="1.000000" stroke="none" 
	d="
M503.000000,0.999999 
	C655.311096,1.000000 807.622192,1.000000 959.966675,1.000000 
	C959.966675,166.286957 959.966675,331.573944 959.966675,496.930450 
	C640.426392,496.930450 320.852753,496.930450 1.139549,496.930450 
	C1.139549,331.783936 1.139549,166.567719 1.139549,1.000000 
	C163.358994,1.000000 325.718231,1.000000 488.459198,1.349908 
	C480.712250,5.715821 472.583557,9.731825 463.992889,13.976085 
	C466.115753,15.925659 467.576050,17.277308 469.047577,18.616623 
	C519.575439,64.603409 570.106201,110.587105 620.631714,156.576477 
	C630.257629,165.338181 629.409180,175.117310 618.408020,181.910248 
	C582.678894,203.972244 546.914856,225.977951 511.245026,248.135284 
	C508.451691,249.870438 506.516144,249.924957 503.665344,248.268234 
	C485.656494,237.802521 467.503174,227.585724 449.428009,217.233612 
	C441.075317,212.449783 432.714050,212.221832 424.190857,216.731705 
	C418.889130,219.537003 413.528656,222.231125 408.201782,224.989105 
	C400.962463,228.737274 400.599274,231.370529 406.649353,236.605865 
	C424.543854,252.090576 442.455078,267.555939 460.353424,283.036163 
	C461.689911,284.192139 462.976257,285.406097 464.367584,286.667114 
	C459.747803,294.097137 455.406433,301.079407 450.736053,308.590820 
	C459.911011,309.063995 468.146667,309.488708 476.273376,309.907806 
	C476.582611,310.821259 476.830688,311.272675 476.881775,311.745392 
	C479.582153,336.739899 482.286530,361.734009 484.937164,386.733826 
	C485.631287,393.280609 488.348145,394.799194 494.251190,391.686310 
	C500.141724,388.579956 506.025940,385.459747 511.866699,382.261200 
	C520.136230,377.732574 524.318726,370.679443 525.082520,361.296143 
	C526.757812,340.713318 528.676636,320.150391 530.357239,299.567963 
	C530.633911,296.178986 531.974854,294.343933 535.182312,293.038239 
	C544.130310,289.395752 552.924377,285.374878 561.775635,281.495178 
	C591.384705,268.516846 620.984375,255.517288 650.604187,242.563477 
	C661.915405,237.616638 670.581482,242.518555 672.190430,254.678238 
	C672.605286,257.813538 673.022888,260.948456 673.444702,264.082825 
	C679.661743,310.289948 685.883728,356.496460 692.095947,402.704254 
	C694.862854,423.285095 697.610535,443.868530 700.515625,465.560791 
	C709.083252,460.528625 717.380737,456.308594 724.926697,451.016876 
	C730.992554,446.763123 733.840454,439.963104 734.983459,432.625122 
	C735.495972,429.334930 735.881653,426.025208 736.363647,422.730011 
	C747.980042,343.309204 759.626892,263.892853 771.167175,184.461014 
	C771.957214,179.023178 774.391785,175.412964 779.310303,172.833969 
	C800.408020,161.771500 821.388367,150.484924 842.398376,139.255432 
	C856.269287,131.841675 868.060120,121.931252 877.568787,109.402153 
	C883.538635,101.535942 887.004150,92.634712 887.946289,82.744339 
	C888.223633,79.832893 887.410095,77.795067 884.593140,76.925423 
	C877.964905,74.879097 871.404297,71.779564 864.634216,71.187119 
	C846.250244,69.578346 828.977905,74.483643 812.673462,82.790314 
	C791.902100,93.372757 771.146362,103.991508 750.546265,114.901123 
	C744.827515,117.929688 739.947876,117.989799 734.105957,115.095444 
	C657.124390,76.955116 580.050659,39.000854 503.000000,0.999999 
M486.029327,74.867073 
	C478.729004,68.037292 471.407227,61.230274 464.133972,54.371777 
	C455.682159,46.401901 446.156281,44.790306 435.616760,49.581001 
	C370.496490,79.181000 327.146576,128.045624 305.995697,196.430878 
	C304.879578,200.039581 303.125671,202.321487 299.862274,204.214081 
	C257.259155,228.921463 216.405548,256.175385 178.993393,288.336426 
	C157.965073,306.413239 138.181732,325.709747 122.233200,348.579437 
	C115.148872,358.738159 109.053192,369.442230 105.862228,381.534058 
	C100.093872,403.392609 108.321747,419.573242 129.345474,427.940430 
	C141.437515,432.752930 154.149826,434.393829 167.002960,434.719147 
	C203.819260,435.650940 239.612350,428.804535 274.915863,419.305389 
	C297.222595,413.303284 319.226715,406.176727 341.392181,399.546844 
	C347.968048,407.101501 354.378540,415.469879 361.793701,422.825439 
	C418.769348,479.343231 487.103058,501.930725 566.505005,490.108551 
	C599.087708,485.257355 628.865295,472.748718 656.377869,454.737122 
	C665.282776,448.907379 669.551636,440.857941 668.198914,430.148804 
	C666.947144,420.238342 665.674805,410.328186 664.184631,400.452118 
	C663.867493,398.350159 662.570557,396.395996 661.725037,394.373749 
	C659.786316,395.364075 657.500671,395.978455 655.960022,397.400146 
	C623.445557,427.403870 585.177612,444.942566 541.071594,447.519806 
	C480.147552,451.079742 428.890961,429.656677 387.897308,384.208130 
	C387.273132,383.516113 386.788605,382.698090 386.041534,381.666321 
	C387.912933,380.831024 389.404419,380.177246 390.886139,379.502136 
	C410.730774,370.461182 430.654327,361.588165 450.391937,352.319183 
	C465.861755,345.054382 465.775574,344.831604 461.081818,328.366791 
	C460.802429,327.386841 459.927795,325.796082 459.343506,325.802032 
	C452.046967,325.876038 445.007568,322.821259 437.381439,326.357788 
	C415.789978,336.370544 393.819153,345.565033 372.005402,355.099274 
	C369.360809,356.255127 366.896088,357.181915 366.433350,353.116669 
	C388.920471,343.463409 411.313049,333.850739 433.705627,324.238098 
	C433.593201,323.825043 433.480804,323.412018 433.368378,322.998993 
	C431.523865,322.457275 429.679352,321.915527 427.577576,321.298248 
	C430.049835,313.751038 432.445312,306.438141 435.261353,297.841522 
	C408.628052,311.107422 382.701874,322.465698 355.134094,330.234558 
	C354.291565,328.044525 353.578339,326.369568 352.995789,324.650330 
	C333.867920,268.202789 339.598969,214.201004 370.549286,163.462906 
	C396.452667,120.998413 434.503937,94.150085 482.466064,81.292458 
	C485.725342,80.418716 488.480835,79.661148 486.029327,74.867073 
M203.931000,455.631683 
	C183.551193,458.179688 163.133865,459.352020 142.654480,456.970123 
	C128.497574,455.323578 114.749908,452.163269 102.412193,444.623657 
	C86.416031,434.848389 79.548958,419.765503 82.471382,401.251556 
	C82.705002,399.771576 83.174194,398.303436 83.196701,396.824646 
	C83.210915,395.890533 82.598236,394.946869 82.266747,394.007507 
	C81.676788,393.929626 81.086830,393.851776 80.496872,393.773895 
	C78.744766,399.160858 76.619179,404.458588 75.306984,409.950653 
	C70.347618,430.707520 76.606682,448.136963 92.972893,458.537109 
	C97.834641,461.626587 103.239540,464.132782 108.714882,465.937469 
	C130.368530,473.074524 152.666168,472.807892 174.982925,470.528778 
	C212.126953,466.735413 247.917618,457.115845 282.721802,443.927307 
	C301.057037,436.979431 318.963013,428.894165 337.003693,421.183990 
	C338.177307,420.682434 338.843201,418.992798 339.745270,417.855774 
	C338.181732,417.588318 336.608978,417.077820 335.057861,417.136810 
	C333.978394,417.177826 332.934052,418.013397 331.864868,418.472687 
	C291.029419,436.014008 248.959732,449.314667 203.931000,455.631683 
M774.810425,241.350937 
	C772.347412,258.095825 769.884338,274.840729 767.198669,293.099304 
	C780.852722,284.519867 793.634521,277.094727 805.707581,268.655670 
	C812.076111,264.204041 813.182373,255.209442 810.130432,247.636581 
	C807.089478,240.090958 800.247009,235.328705 792.217712,235.664093 
	C787.403381,235.865189 782.583191,236.519012 777.839355,237.376984 
	C776.724243,237.578644 775.906860,239.426819 774.810425,241.350937 
M692.055847,39.020504 
	C688.022400,39.735245 683.762024,39.855423 680.003113,41.289680 
	C672.407288,44.187973 665.076721,47.784142 657.650452,51.123093 
	C653.326294,53.067333 649.028809,55.070827 644.022156,57.367447 
	C661.048096,65.799637 677.254456,73.825951 693.797729,82.019096 
	C696.668091,78.834091 699.446106,75.774536 702.199097,72.692696 
	C713.569580,59.963928 709.210693,44.224812 692.055847,39.020504 
M798.024536,330.815674 
	C794.786011,322.511902 788.805359,317.771027 779.810120,317.917755 
	C774.372925,318.006409 768.952209,319.101440 763.303040,319.770447 
	C760.661255,337.907135 758.068298,355.708160 755.308167,374.657043 
	C767.291992,367.394440 778.226685,360.839935 789.086304,354.163330 
	C797.773315,348.822479 800.599426,341.676178 798.024536,330.815674 
M589.941528,30.593460 
	C599.729309,35.431446 609.517151,40.269436 619.495178,45.201469 
	C623.185852,40.999912 626.918457,37.194016 630.131897,32.991093 
	C635.290039,26.244579 635.178894,17.689743 630.275208,10.712849 
	C625.393677,3.767417 617.036316,0.212214 609.299988,3.264555 
	C596.178223,8.441720 583.404541,14.501164 569.672302,20.547384 
	C576.820801,24.070364 583.057373,27.143894 589.941528,30.593460 
z"/>
<path fill="#020202" opacity="1.000000" stroke="none" 
	d="
M502.535339,0.999999 
	C580.050659,39.000854 657.124390,76.955116 734.105957,115.095444 
	C739.947876,117.989799 744.827515,117.929688 750.546265,114.901123 
	C771.146362,103.991508 791.902100,93.372757 812.673462,82.790314 
	C828.977905,74.483643 846.250244,69.578346 864.634216,71.187119 
	C871.404297,71.779564 877.964905,74.879097 884.593140,76.925423 
	C887.410095,77.795067 888.223633,79.832893 887.946289,82.744339 
	C887.004150,92.634712 883.538635,101.535942 877.568787,109.402153 
	C868.060120,121.931252 856.269287,131.841675 842.398376,139.255432 
	C821.388367,150.484924 800.408020,161.771500 779.310303,172.833969 
	C774.391785,175.412964 771.957214,179.023178 771.167175,184.461014 
	C759.626892,263.892853 747.980042,343.309204 736.363647,422.730011 
	C735.881653,426.025208 735.495972,429.334930 734.983459,432.625122 
	C733.840454,439.963104 730.992554,446.763123 724.926697,451.016876 
	C717.380737,456.308594 709.083252,460.528625 700.515625,465.560791 
	C697.610535,443.868530 694.862854,423.285095 692.095947,402.704254 
	C685.883728,356.496460 679.661743,310.289948 673.444702,264.082825 
	C673.022888,260.948456 672.605286,257.813538 672.190430,254.678238 
	C670.581482,242.518555 661.915405,237.616638 650.604187,242.563477 
	C620.984375,255.517288 591.384705,268.516846 561.775635,281.495178 
	C552.924377,285.374878 544.130310,289.395752 535.182312,293.038239 
	C531.974854,294.343933 530.633911,296.178986 530.357239,299.567963 
	C528.676636,320.150391 526.757812,340.713318 525.082520,361.296143 
	C524.318726,370.679443 520.136230,377.732574 511.866699,382.261200 
	C506.025940,385.459747 500.141724,388.579956 494.251190,391.686310 
	C488.348145,394.799194 485.631287,393.280609 484.937164,386.733826 
	C482.286530,361.734009 479.582153,336.739899 476.881775,311.745392 
	C476.830688,311.272675 476.582611,310.821259 476.273376,309.907806 
	C468.146667,309.488708 459.911011,309.063995 450.736053,308.590820 
	C455.406433,301.079407 459.747803,294.097137 464.367584,286.667114 
	C462.976257,285.406097 461.689911,284.192139 460.353424,283.036163 
	C442.455078,267.555939 424.543854,252.090576 406.649353,236.605865 
	C400.599274,231.370529 400.962463,228.737274 408.201782,224.989105 
	C413.528656,222.231125 418.889130,219.537003 424.190857,216.731705 
	C432.714050,212.221832 441.075317,212.449783 449.428009,217.233612 
	C467.503174,227.585724 485.656494,237.802521 503.665344,248.268234 
	C506.516144,249.924957 508.451691,249.870438 511.245026,248.135284 
	C546.914856,225.977951 582.678894,203.972244 618.408020,181.910248 
	C629.409180,175.117310 630.257629,165.338181 620.631714,156.576477 
	C570.106201,110.587105 519.575439,64.603409 469.047577,18.616623 
	C467.576050,17.277308 466.115753,15.925659 463.992889,13.976085 
	C472.583557,9.731825 480.712250,5.715821 488.920471,1.349908 
	C493.356903,1.000000 497.713806,1.000000 502.535339,0.999999 
z"/>
<path fill="#020202" opacity="1.000000" stroke="none" 
	d="
M486.307556,75.134003 
	C488.480835,79.661148 485.725342,80.418716 482.466064,81.292458 
	C434.503937,94.150085 396.452667,120.998413 370.549286,163.462906 
	C339.598969,214.201004 333.867920,268.202789 352.995789,324.650330 
	C353.578339,326.369568 354.291565,328.044525 355.134094,330.234558 
	C382.701874,322.465698 408.628052,311.107422 435.261353,297.841522 
	C432.445312,306.438141 430.049835,313.751038 427.577576,321.298248 
	C429.679352,321.915527 431.523865,322.457275 433.368378,322.998993 
	C433.480804,323.412018 433.593201,323.825043 433.705627,324.238098 
	C411.313049,333.850739 388.920471,343.463409 366.433350,353.116669 
	C366.896088,357.181915 369.360809,356.255127 372.005402,355.099274 
	C393.819153,345.565033 415.789978,336.370544 437.381439,326.357788 
	C445.007568,322.821259 452.046967,325.876038 459.343506,325.802032 
	C459.927795,325.796082 460.802429,327.386841 461.081818,328.366791 
	C465.775574,344.831604 465.861755,345.054382 450.391937,352.319183 
	C430.654327,361.588165 410.730774,370.461182 390.886139,379.502136 
	C389.404419,380.177246 387.912933,380.831024 386.041534,381.666321 
	C386.788605,382.698090 387.273132,383.516113 387.897308,384.208130 
	C428.890961,429.656677 480.147552,451.079742 541.071594,447.519806 
	C585.177612,444.942566 623.445557,427.403870 655.960022,397.400146 
	C657.500671,395.978455 659.786316,395.364075 661.725037,394.373718 
	C662.570557,396.395996 663.867493,398.350159 664.184631,400.452118 
	C665.674805,410.328186 666.947144,420.238342 668.198914,430.148804 
	C669.551636,440.857941 665.282776,448.907379 656.377869,454.737122 
	C628.865295,472.748718 599.087708,485.257355 566.505005,490.108551 
	C487.103058,501.930725 418.769348,479.343231 361.793701,422.825439 
	C354.378540,415.469879 347.968048,407.101501 341.392181,399.546844 
	C319.226715,406.176727 297.222595,413.303284 274.915863,419.305389 
	C239.612350,428.804535 203.819260,435.650940 167.002960,434.719147 
	C154.149826,434.393829 141.437515,432.752930 129.345474,427.940430 
	C108.321747,419.573242 100.093872,403.392609 105.862228,381.534058 
	C109.053192,369.442230 115.148872,358.738159 122.233200,348.579437 
	C138.181732,325.709747 157.965073,306.413239 178.993393,288.336426 
	C216.405548,256.175385 257.259155,228.921463 299.862274,204.214081 
	C303.125671,202.321487 304.879578,200.039581 305.995697,196.430878 
	C327.146576,128.045624 370.496490,79.181000 435.616760,49.581001 
	C446.156281,44.790306 455.682159,46.401901 464.133972,54.371777 
	C471.407227,61.230274 478.729004,68.037292 486.307556,75.134003 
M284.567444,380.909607 
	C297.625488,377.875000 310.683533,374.840363 323.713715,371.812225 
	C323.006073,367.194122 321.169739,366.730682 317.654297,367.638947 
	C294.223206,373.692505 270.565338,378.426300 246.186844,377.805878 
	C236.316574,377.554657 226.567978,376.334747 217.550156,371.888733 
	C207.120209,366.746552 202.189133,358.533600 203.952591,347.176575 
	C204.877853,341.217621 206.632187,334.867096 209.861359,329.894257 
	C216.628601,319.472900 223.914154,309.205383 232.253723,300.025574 
	C250.037170,280.450378 271.015930,264.465485 292.819366,249.626083 
	C296.694336,246.988770 297.935059,244.116394 296.992676,238.806870 
	C285.775299,246.807404 274.930359,254.172272 264.486328,262.067413 
	C241.968704,279.089569 220.279053,297.151764 203.765579,320.312439 
	C197.865265,328.587769 192.903625,337.983795 189.652573,347.592041 
	C184.635025,362.420990 190.875763,374.126801 205.333893,380.305481 
	C209.127563,381.926666 213.184479,383.146118 217.241241,383.901794 
	C239.602692,388.067078 261.691864,385.043152 284.567444,380.909607 
M290.717255,286.200653 
	C282.732513,294.741425 274.999847,303.473358 271.579437,315.017883 
	C269.270996,322.809418 270.983948,329.367065 276.821838,333.335876 
	C286.753601,340.087769 297.960327,339.676025 308.518433,339.098877 
	C304.300995,319.415039 300.207916,300.311676 296.114868,281.208313 
	C295.779449,280.577911 295.444000,279.947510 295.108582,279.317108 
	C293.808258,281.436340 292.507904,283.555603 290.717255,286.200653 
z"/>
<path fill="#0A0A0A" opacity="1.000000" stroke="none" 
	d="
M204.367432,455.538513 
	C248.959732,449.314667 291.029419,436.014008 331.864868,418.472687 
	C332.934052,418.013397 333.978394,417.177826 335.057861,417.136810 
	C336.608978,417.077820 338.181732,417.588318 339.745300,417.855774 
	C338.843201,418.992798 338.177307,420.682434 337.003693,421.183990 
	C318.963013,428.894165 301.057037,436.979431 282.721802,443.927307 
	C247.917618,457.115845 212.126953,466.735413 174.982925,470.528778 
	C152.666168,472.807892 130.368530,473.074524 108.714882,465.937469 
	C103.239540,464.132782 97.834641,461.626587 92.972893,458.537109 
	C76.606682,448.136963 70.347618,430.707520 75.306984,409.950653 
	C76.619179,404.458588 78.744766,399.160858 80.496872,393.773895 
	C81.086830,393.851776 81.676788,393.929626 82.266747,394.007507 
	C82.598236,394.946869 83.210915,395.890533 83.196701,396.824646 
	C83.174194,398.303436 82.705002,399.771576 82.471382,401.251556 
	C79.548958,419.765503 86.416031,434.848389 102.412193,444.623657 
	C114.749908,452.163269 128.497574,455.323578 142.654480,456.970123 
	C163.133865,459.352020 183.551193,458.179688 204.367432,455.538513 
z"/>
<path fill="#060606" opacity="1.000000" stroke="none" 
	d="
M774.881470,240.934235 
	C775.906860,239.426819 776.724243,237.578644 777.839355,237.376984 
	C782.583191,236.519012 787.403381,235.865189 792.217712,235.664093 
	C800.247009,235.328705 807.089478,240.090958 810.130432,247.636581 
	C813.182373,255.209442 812.076111,264.204041 805.707581,268.655670 
	C793.634521,277.094727 780.852722,284.519867 767.198669,293.099304 
	C769.884338,274.840729 772.347412,258.095825 774.881470,240.934235 
z"/>
<path fill="#040404" opacity="1.000000" stroke="none" 
	d="
M692.480103,39.065262 
	C709.210693,44.224812 713.569580,59.963928 702.199097,72.692696 
	C699.446106,75.774536 696.668091,78.834091 693.797729,82.019096 
	C677.254456,73.825951 661.048096,65.799637 644.022156,57.367447 
	C649.028809,55.070827 653.326294,53.067333 657.650452,51.123093 
	C665.076721,47.784142 672.407288,44.187973 680.003113,41.289680 
	C683.762024,39.855423 688.022400,39.735245 692.480103,39.065262 
z"/>
<path fill="#060606" opacity="1.000000" stroke="none" 
	d="
M798.130554,331.210266 
	C800.599426,341.676178 797.773315,348.822479 789.086304,354.163330 
	C778.226685,360.839935 767.291992,367.394440 755.308167,374.657043 
	C758.068298,355.708160 760.661255,337.907135 763.303040,319.770447 
	C768.952209,319.101440 774.372925,318.006409 779.810120,317.917755 
	C788.805359,317.771027 794.786011,322.511902 798.130554,331.210266 
z"/>
<path fill="#040404" opacity="1.000000" stroke="none" 
	d="
M589.617676,30.405441 
	C583.057373,27.143894 576.820801,24.070364 569.672302,20.547384 
	C583.404541,14.501164 596.178223,8.441720 609.299988,3.264555 
	C617.036316,0.212214 625.393677,3.767417 630.275208,10.712849 
	C635.178894,17.689743 635.290039,26.244579 630.131897,32.991093 
	C626.918457,37.194016 623.185852,40.999912 619.495178,45.201469 
	C609.517151,40.269436 599.729309,35.431446 589.617676,30.405441 
z"/>
<path fill="#F2F2F2" opacity="1.000000" stroke="none" 
	d="
M284.144104,380.963959 
	C261.691864,385.043152 239.602692,388.067078 217.241241,383.901794 
	C213.184479,383.146118 209.127563,381.926666 205.333893,380.305481 
	C190.875763,374.126801 184.635025,362.420990 189.652573,347.592041 
	C192.903625,337.983795 197.865265,328.587769 203.765579,320.312439 
	C220.279053,297.151764 241.968704,279.089569 264.486328,262.067413 
	C274.930359,254.172272 285.775299,246.807404 296.992676,238.806870 
	C297.935059,244.116394 296.694336,246.988770 292.819366,249.626083 
	C271.015930,264.465485 250.037170,280.450378 232.253723,300.025574 
	C223.914154,309.205383 216.628601,319.472900 209.861359,329.894257 
	C206.632187,334.867096 204.877853,341.217621 203.952591,347.176575 
	C202.189133,358.533600 207.120209,366.746552 217.550156,371.888733 
	C226.567978,376.334747 236.316574,377.554657 246.186844,377.805878 
	C270.565338,378.426300 294.223206,373.692505 317.654297,367.638947 
	C321.169739,366.730682 323.006073,367.194122 323.713715,371.812225 
	C310.683533,374.840363 297.625488,377.875000 284.144104,380.963959 
z"/>
<path fill="#F9F9F9" opacity="1.000000" stroke="none" 
	d="
M290.962402,285.937744 
	C292.507904,283.555603 293.808258,281.436340 295.108582,279.317108 
	C295.444000,279.947510 295.779449,280.577911 296.114868,281.208313 
	C300.207916,300.311676 304.300995,319.415039 308.518433,339.098877 
	C297.960327,339.676025 286.753601,340.087769 276.821838,333.335876 
	C270.983948,329.367065 269.270996,322.809418 271.579437,315.017883 
	C274.999847,303.473358 282.732513,294.741425 290.962402,285.937744 
z"/>
</svg>